<svg xmlns="http://www.w3.org/2000/svg" xmlns:xlink="http://www.w3.org/1999/xlink" width="270" zoomAndPan="magnify" viewBox="0 0 283.5 283.500005" height="34" preserveAspectRatio="xMidYMid meet" version="1.0"><defs><g/></defs><g fill="#ffffff" fill-opacity="1"><g transform="translate(85.441612, 150.264567)"><g><path d="M 2 0 L 2 -13.78125 L 4.796875 -13.78125 L 4.796875 -10.40625 C 5.367188 -12.945312 6.867188 -14.21875 9.296875 -14.21875 L 9.453125 -14.21875 C 11.628906 -14.21875 13.066406 -13.175781 13.765625 -11.09375 C 14.441406 -13.175781 15.878906 -14.21875 18.078125 -14.21875 L 18.234375 -14.21875 C 19.804688 -14.21875 21.003906 -13.675781 21.828125 -12.59375 C 22.648438 -11.507812 23.0625 -9.9375 23.0625 -7.875 L 23.0625 0 L 19.53125 0 L 19.53125 -8.203125 C 19.53125 -9.066406 19.304688 -9.753906 18.859375 -10.265625 C 18.421875 -10.785156 17.796875 -11.046875 16.984375 -11.046875 C 16.160156 -11.046875 15.503906 -10.78125 15.015625 -10.25 C 14.535156 -9.71875 14.296875 -9 14.296875 -8.09375 L 14.296875 0 L 10.765625 0 L 10.765625 -8.203125 C 10.765625 -9.066406 10.546875 -9.753906 10.109375 -10.265625 C 9.671875 -10.785156 9.046875 -11.046875 8.234375 -11.046875 C 7.398438 -11.046875 6.738281 -10.78125 6.25 -10.25 C 5.769531 -9.71875 5.53125 -9 5.53125 -8.09375 L 5.53125 0 Z M 2 0 "/></g></g></g><g fill="#ffffff" fill-opacity="1"><g transform="translate(110.275211, 150.264567)"><g><path d="M 5.921875 0.359375 C 4.390625 0.359375 3.171875 -0.03125 2.265625 -0.8125 C 1.367188 -1.59375 0.921875 -2.6875 0.921875 -4.09375 C 0.921875 -5.59375 1.460938 -6.703125 2.546875 -7.421875 C 3.640625 -8.140625 5.109375 -8.5 6.953125 -8.5 L 9.78125 -8.5 L 9.78125 -8.640625 C 9.78125 -10.210938 8.984375 -11 7.390625 -11 C 6.960938 -11 6.453125 -10.988281 5.859375 -10.96875 C 5.273438 -10.945312 4.679688 -10.925781 4.078125 -10.90625 C 3.472656 -10.882812 2.9375 -10.851562 2.46875 -10.8125 L 2.46875 -13.8125 C 3.039062 -13.863281 3.726562 -13.90625 4.53125 -13.9375 C 5.332031 -13.96875 6.070312 -13.984375 6.75 -13.984375 C 8.863281 -13.984375 10.457031 -13.554688 11.53125 -12.703125 C 12.613281 -11.847656 13.15625 -10.46875 13.15625 -8.5625 L 13.15625 0 L 10.359375 0 L 10.359375 -2.640625 C 9.734375 -0.640625 8.253906 0.359375 5.921875 0.359375 Z M 6.90625 -2.15625 C 7.382812 -2.15625 7.832031 -2.242188 8.25 -2.421875 C 8.675781 -2.597656 9.023438 -2.898438 9.296875 -3.328125 C 9.578125 -3.765625 9.738281 -4.359375 9.78125 -5.109375 L 9.78125 -6.40625 L 6.90625 -6.40625 C 6.09375 -6.40625 5.46875 -6.203125 5.03125 -5.796875 C 4.601562 -5.398438 4.390625 -4.890625 4.390625 -4.265625 C 4.390625 -3.617188 4.601562 -3.101562 5.03125 -2.71875 C 5.46875 -2.34375 6.09375 -2.15625 6.90625 -2.15625 Z M 6.90625 -2.15625 "/></g></g></g><g fill="#ffffff" fill-opacity="1"><g transform="translate(125.205839, 150.264567)"><g><path d="M 2 0 L 2 -13.78125 L 4.796875 -13.78125 L 4.796875 -9.296875 C 5.171875 -12.410156 6.8125 -13.96875 9.71875 -13.96875 L 10.234375 -13.96875 L 10.234375 -10.890625 L 9.265625 -10.890625 C 8.066406 -10.890625 7.144531 -10.566406 6.5 -9.921875 C 5.851562 -9.285156 5.53125 -8.375 5.53125 -7.1875 L 5.53125 0 Z M 2 0 "/></g></g></g><g fill="#ffffff" fill-opacity="1"><g transform="translate(135.794397, 150.264567)"><g><path d="M 2 0 L 2 -18.53125 L 5.53125 -18.53125 L 5.53125 -7.140625 L 10.84375 -13.78125 L 14.53125 -13.78125 L 9.828125 -7.921875 L 15.640625 0 L 11.65625 0 L 7.03125 -6.453125 L 5.53125 -6.453125 L 5.53125 0 Z M 2 0 "/></g></g></g><g fill="#ffffff" fill-opacity="1"><g transform="translate(156.325124, 150.264567)"><g><path d="M 5.046875 0 L 1.015625 -13.203125 L 1.859375 -13.203125 L 5.640625 -0.765625 L 6.21875 -0.765625 L 9.21875 -12.765625 L 10.609375 -12.765625 L 13.96875 -0.765625 L 14.546875 -0.765625 L 17.921875 -13.203125 L 18.734375 -13.203125 L 15.140625 0 L 13.359375 0 L 9.90625 -12.296875 L 6.828125 0 Z M 5.046875 0 "/></g></g></g><g fill="#ffffff" fill-opacity="1"><g transform="translate(176.232634, 150.264567)"><g><path d="M 7.234375 0.359375 C 5.628906 0.359375 4.421875 -0.148438 3.609375 -1.171875 C 2.796875 -2.203125 2.390625 -3.539062 2.390625 -5.1875 L 2.390625 -13.203125 L 3.203125 -13.203125 L 3.203125 -4.984375 C 3.203125 -3.640625 3.546875 -2.539062 4.234375 -1.6875 C 4.929688 -0.832031 5.957031 -0.40625 7.3125 -0.40625 C 8.695312 -0.40625 9.78125 -0.835938 10.5625 -1.703125 C 11.34375 -2.578125 11.734375 -3.703125 11.734375 -5.078125 L 11.734375 -13.203125 L 12.546875 -13.203125 L 12.546875 0 L 11.890625 0 L 11.890625 -3 C 11.578125 -2 11.039062 -1.1875 10.28125 -0.5625 C 9.519531 0.0507812 8.519531 0.359375 7.28125 0.359375 Z M 7.234375 0.359375 "/></g></g></g><g fill="#f13024" fill-opacity="1"><g transform="translate(191.564193, 150.264567)"><g><path d="M 2.34375 0 L 2.34375 -1.953125 L 4.109375 -1.953125 L 4.109375 0 Z M 2.34375 0 "/></g></g></g></svg>